<?xml version="1.0" standalone="no"?><!DOCTYPE svg PUBLIC "-//W3C//DTD SVG 1.1//EN" "http://www.w3.org/Graphics/SVG/1.1/DTD/svg11.dtd"><svg t="1532837927994" class="icon" style="" viewBox="0 0 1024 1024" version="1.1" xmlns="http://www.w3.org/2000/svg" p-id="1568" xmlns:xlink="http://www.w3.org/1999/xlink" width="200" height="200"><defs><style type="text/css"></style></defs><path d="M510.581717 0C229.761773 0 0 204.232687 0 453.850416c0 215.578947 170.193906 399.955679 405.628809 445.34072l73.750692 107.789473c5.67313 11.34626 17.019391 17.019391 28.365651 17.019391s22.692521-5.67313 28.365651-17.019391l73.750693-107.789473C850.969529 853.806094 1021.163435 669.429363 1021.163435 453.850416c0-249.617729-229.761773-453.850416-510.581718-453.850416zM255.290859 530.437673c-39.711911 0-73.750693-34.038781-73.750693-76.587257 0-42.548476 34.038781-76.587258 73.750693-76.587258 39.711911 0 73.750693 34.038781 73.750692 76.587258 0 42.548476-34.038781 76.587258-73.750692 76.587257z m255.290858 0c-39.711911 0-73.750693-34.038781-73.750692-76.587257 0-42.548476 34.038781-76.587258 73.750692-76.587258 39.711911 0 73.750693 34.038781 73.750693 76.587258 0 42.548476-34.038781 76.587258-73.750693 76.587257z m255.290859 0c-39.711911 0-73.750693-34.038781-73.750692-76.587257 0-42.548476 34.038781-76.587258 73.750692-76.587258 39.711911 0 73.750693 34.038781 73.750693 76.587258 0 42.548476-34.038781 76.587258-73.750693 76.587257z" fill="#666666" p-id="1569"></path></svg>