<?xml version="1.0" standalone="no"?><!DOCTYPE svg PUBLIC "-//W3C//DTD SVG 1.1//EN" "http://www.w3.org/Graphics/SVG/1.1/DTD/svg11.dtd"><svg t="1532838166936" class="icon" style="" viewBox="0 0 1024 1024" version="1.1" xmlns="http://www.w3.org/2000/svg" p-id="2266" xmlns:xlink="http://www.w3.org/1999/xlink" width="200" height="200"><defs><style type="text/css"></style></defs><path d="M512.5 909.2l-9-5c-88.3-49.4-200.3-116.7-282.9-199.7-43.2-43.4-75.6-88.4-96.5-133.8-23.9-52-33.5-106.3-28.5-161.5 4.6-51.4 21.5-95 50.1-129.7 26.3-31.8 61.9-54.6 102.9-65.9 47.1-13 100-10.3 149.1 7.7 44.1 16.1 83.4 43.6 114.9 80 30.6-36.6 68.8-64 111.8-80 47.6-17.7 99.5-20.3 146.3-7.4 43.1 11.9 80.5 36.2 108.2 70.4 30.1 37.3 47.4 83.8 51.4 138.4 7.8 107-29.6 200.6-114.2 286.1-82 82.9-200.4 148.2-294.4 195.9l-9.2 4.5zM310.6 243.9c-17.4 0-34.8 2.3-51.7 6.9C187 270.6 141.5 329.6 134 412.7c-17.8 199 180.1 340.5 379.3 452.8 89.8-45.9 199.8-107.7 275.3-184 76.3-77.1 110-160.9 103.1-256.1-6.4-88.3-55.5-153.5-131.3-174.3-83.8-23.1-177 14.1-231.8 92.6l-15.5 22.2-15.9-22c-45.9-63.4-116.6-100-186.6-100z" fill="#231815" p-id="2267"></path><path d="M715 509.7c8 111.3-87.8 177.2-202.2 235.2-97.7-54.6-212-130.7-202.1-241.9 9.9-111 140.8-124.3 202.1-39.8 61.3-87.7 193.9-67.8 202.2 46.5z" fill="#FEE632" p-id="2268"></path></svg>