<?xml version="1.0" standalone="no"?><!DOCTYPE svg PUBLIC "-//W3C//DTD SVG 1.1//EN" "http://www.w3.org/Graphics/SVG/1.1/DTD/svg11.dtd"><svg t="1532837123090" class="icon" style="" viewBox="0 0 1024 1024" version="1.1" xmlns="http://www.w3.org/2000/svg" p-id="1112" xmlns:xlink="http://www.w3.org/1999/xlink" width="200" height="200"><defs><style type="text/css"></style></defs><path d="M512 0C228.072727 0 0 228.072727 0 512s228.072727 512 512 512 512-228.072727 512-512S795.927273 0 512 0z m0 977.454545C256 977.454545 46.545455 768 46.545455 512S256 46.545455 512 46.545455s465.454545 209.454545 465.454545 465.454545-209.454545 465.454545-465.454545 465.454545z m218.763636-486.4l-323.490909-186.181818c-6.981818-4.654545-13.963636-4.654545-20.945454 0 0 0-2.327273 0-2.327273 2.327273 0 0-2.327273 0-2.327273 2.327273-4.654545 2.327273-9.309091 9.309091-9.309091 16.290909v370.036363c0 4.654545 0 9.309091 2.327273 13.963637 6.981818 11.636364 20.945455 13.963636 32.581818 9.309091l325.818182-186.181818c11.636364-6.981818 13.963636-20.945455 9.309091-32.581819-2.327273-4.654545-6.981818-6.981818-11.636364-9.309091zM418.909091 658.618182V365.381818L674.909091 512l-256 146.618182z" fill="#666666" p-id="1113"></path></svg>